<?xml version="1.0" encoding="UTF-8" standalone="no"?>
<!DOCTYPE svg PUBLIC "-//W3C//DTD SVG 1.1//EN"
 "http://www.w3.org/Graphics/SVG/1.1/DTD/svg11.dtd">
<!-- Generated by graphviz version 2.43.0 (0)
 -->
<!-- Title: %3 Pages: 1 -->
<svg width="582pt" height="432pt"
 viewBox="0.00 0.00 582.05 432.00" xmlns="http://www.w3.org/2000/svg" xmlns:xlink="http://www.w3.org/1999/xlink">
<g id="graph0" class="graph" transform="scale(1 1) rotate(0) translate(4 428)">
<title>%3</title>
<polygon fill="white" stroke="transparent" points="-4,4 -4,-428 578.05,-428 578.05,4 -4,4"/>
<g id="clust2" class="cluster">
<title>clusterLegend</title>
<polygon fill="none" stroke="black" points="8,-167 8,-416 402.05,-416 402.05,-167 8,-167"/>
<text text-anchor="middle" x="205.02" y="-400.8" font-family="Times,serif" font-size="14.00">Legend</text>
</g>
<g id="clust3" class="cluster">
<title>cluster_div_0</title>
<polygon fill="none" stroke="black" points="29.79,-44 29.79,-159 566.05,-159 566.05,-44 29.79,-44"/>
<text text-anchor="middle" x="297.92" y="-143.8" font-family="Times,serif" font-size="14.00">div (main)</text>
</g>
<!-- main_magnet -->
<!-- div_0_x1 -->
<g id="node10" class="node">
<title>div_0_x1</title>
<ellipse fill="#ffadad" stroke="black" cx="64.79" cy="-96" rx="27" ry="18"/>
<text text-anchor="middle" x="64.79" y="-92.3" font-family="Times,serif" font-size="14.00">x1</text>
</g>
<!-- main_magnet&#45;&gt;div_0_x1 -->
<!-- div_0_x2 -->
<g id="node11" class="node">
<title>div_0_x2</title>
<ellipse fill="#ffadad" stroke="black" cx="345.26" cy="-70" rx="27" ry="18"/>
<text text-anchor="middle" x="345.26" y="-66.3" font-family="Times,serif" font-size="14.00">x2</text>
</g>
<!-- main_magnet&#45;&gt;div_0_x2 -->
<!-- div_0_o -->
<g id="node12" class="node">
<title>div_0_o</title>
<ellipse fill="#ffd6a5" stroke="black" cx="531.05" cy="-80" rx="27" ry="18"/>
<text text-anchor="middle" x="531.05" y="-76.3" font-family="Times,serif" font-size="14.00">o</text>
</g>
<!-- main_magnet&#45;&gt;div_0_o -->
<!-- div_0_call_fr_div -->
<g id="node13" class="node">
<title>div_0_call_fr_div</title>
<polygon fill="#bdb2ff" stroke="black" points="467.05,-108 431.05,-108 431.05,-72 467.05,-72 467.05,-108"/>
<text text-anchor="middle" x="449.05" y="-86.3" font-family="Times,serif" font-size="14.00">\ </text>
</g>
<!-- main_magnet&#45;&gt;div_0_call_fr_div -->
<!-- inputSignal -->
<g id="node2" class="node">
<title>inputSignal</title>
<ellipse fill="#ffadad" stroke="black" cx="64.79" cy="-367" rx="29.6" ry="18"/>
<text text-anchor="middle" x="64.79" y="-363.9" font-family="Times,serif" font-size="12.00">Input</text>
</g>
<!-- outputSignal -->
<g id="node3" class="node">
<title>outputSignal</title>
<ellipse fill="#ffd6a5" stroke="black" cx="345.26" cy="-367" rx="35.91" ry="18"/>
<text text-anchor="middle" x="345.26" y="-363.9" font-family="Times,serif" font-size="12.00">Output</text>
</g>
<!-- inputSignal&#45;&gt;outputSignal -->
<g id="edge1" class="edge">
<title>inputSignal&#45;&gt;outputSignal</title>
<path fill="none" stroke="black" stroke-width="3" stroke-dasharray="1,5" d="M94.54,-367C145.96,-367 253.47,-367 309.15,-367"/>
<text text-anchor="middle" x="205.02" y="-370.8" font-family="Times,serif" font-size="14.00">Constraint</text>
</g>
<!-- subcmpOutputSignal -->
<g id="node4" class="node">
<title>subcmpOutputSignal</title>
<ellipse fill="#9bf6ff" stroke="black" cx="64.79" cy="-307" rx="48.58" ry="24.08"/>
<text text-anchor="middle" x="64.79" y="-310.4" font-family="Times,serif" font-size="12.00">Subcmp.</text>
<text text-anchor="middle" x="64.79" y="-297.4" font-family="Times,serif" font-size="12.00">output</text>
</g>
<!-- subcmpInputSignal -->
<g id="node5" class="node">
<title>subcmpInputSignal</title>
<ellipse fill="#caffbf" stroke="black" cx="345.26" cy="-307" rx="48.58" ry="24.08"/>
<text text-anchor="middle" x="345.26" y="-310.4" font-family="Times,serif" font-size="12.00">Subcmp.</text>
<text text-anchor="middle" x="345.26" y="-297.4" font-family="Times,serif" font-size="12.00">input</text>
</g>
<!-- subcmpOutputSignal&#45;&gt;subcmpInputSignal -->
<g id="edge2" class="edge">
<title>subcmpOutputSignal&#45;&gt;subcmpInputSignal</title>
<path fill="none" stroke="black" d="M113.66,-307C161.38,-307 234.73,-307 285.85,-307"/>
<polygon fill="black" stroke="black" points="286.08,-310.5 296.08,-307 286.08,-303.5 286.08,-310.5"/>
<text text-anchor="middle" x="205.02" y="-310.8" font-family="Times,serif" font-size="14.00">Data flow</text>
</g>
<!-- intermediateSignal -->
<g id="node6" class="node">
<title>intermediateSignal</title>
<ellipse fill="#fdffb6" stroke="black" cx="64.79" cy="-247" rx="40.03" ry="18"/>
<text text-anchor="middle" x="64.79" y="-243.9" font-family="Times,serif" font-size="12.00">Internal</text>
</g>
<!-- localVar -->
<g id="node7" class="node">
<title>localVar</title>
<ellipse fill="#f5f3e7" stroke="black" cx="345.26" cy="-247" rx="45.61" ry="18"/>
<text text-anchor="middle" x="345.26" y="-243.9" font-family="Times,serif" font-size="12.00">Local var</text>
</g>
<!-- intermediateSignal&#45;&gt;localVar -->
<!-- conditional -->
<g id="node8" class="node">
<title>conditional</title>
<polygon fill="#ffc6ff" stroke="black" points="64.79,-211 23.21,-193 64.79,-175 106.37,-193 64.79,-211"/>
<text text-anchor="middle" x="64.79" y="-189.9" font-family="Times,serif" font-size="12.00">Cond</text>
</g>
<!-- operator -->
<g id="node9" class="node">
<title>operator</title>
<polygon fill="#bdb2ff" stroke="black" points="372.26,-211 318.26,-211 318.26,-175 372.26,-175 372.26,-211"/>
<text text-anchor="middle" x="345.26" y="-189.9" font-family="Times,serif" font-size="12.00">Op</text>
</g>
<!-- conditional&#45;&gt;operator -->
<!-- div_0_x1&#45;&gt;div_0_x2 -->
<g id="edge9" class="edge">
<title>div_0_x1&#45;&gt;div_0_x2</title>
<path fill="none" stroke="black" stroke-width="3" stroke-dasharray="1,5" d="M91.74,-93.58C144.8,-88.62 265.18,-77.38 318.27,-72.43"/>
</g>
<!-- div_0_x1&#45;&gt;div_0_o -->
<g id="edge8" class="edge">
<title>div_0_x1&#45;&gt;div_0_o</title>
<path fill="none" stroke="black" stroke-width="3" stroke-dasharray="1,5" d="M91.35,-100.08C103.5,-101.87 118.26,-103.82 131.58,-105 264.27,-116.71 297.87,-114.33 431.05,-117 447.05,-117.32 451.61,-121.2 467.05,-117 483.94,-112.41 500.93,-102.01 513,-93.41"/>
</g>
<!-- div_0_x1&#45;&gt;div_0_call_fr_div -->
<g id="edge5" class="edge">
<title>div_0_x1&#45;&gt;div_0_call_fr_div</title>
<path fill="none" stroke="black" d="M92,-97.47C148.67,-100.35 286.79,-105.72 402.05,-97 407.99,-96.55 414.32,-95.78 420.33,-94.91"/>
<polygon fill="black" stroke="black" points="421.31,-98.3 430.64,-93.28 420.22,-91.38 421.31,-98.3"/>
</g>
<!-- div_0_x2&#45;&gt;div_0_o -->
<g id="edge10" class="edge">
<title>div_0_x2&#45;&gt;div_0_o</title>
<path fill="none" stroke="black" stroke-width="3" stroke-dasharray="1,5" d="M371.81,-65.72C396.33,-62.28 434.36,-58.67 467.05,-63 480.41,-64.77 494.97,-68.57 506.71,-72.13"/>
</g>
<!-- div_0_x2&#45;&gt;div_0_call_fr_div -->
<g id="edge6" class="edge">
<title>div_0_x2&#45;&gt;div_0_call_fr_div</title>
<path fill="none" stroke="black" d="M371.42,-74.94C386.44,-77.89 405.52,-81.64 420.88,-84.66"/>
<polygon fill="black" stroke="black" points="420.34,-88.12 430.83,-86.62 421.69,-81.25 420.34,-88.12"/>
</g>
<!-- div_0_call_fr_div&#45;&gt;div_0_o -->
<g id="edge7" class="edge">
<title>div_0_call_fr_div&#45;&gt;div_0_o</title>
<path fill="none" stroke="black" d="M467.41,-87.83C475.22,-86.85 484.75,-85.66 494,-84.51"/>
<polygon fill="black" stroke="black" points="494.72,-87.94 504.21,-83.23 493.85,-81 494.72,-87.94"/>
</g>
</g>
</svg>
