<?xml version="1.0" encoding="UTF-8" standalone="no"?>
<!DOCTYPE svg PUBLIC "-//W3C//DTD SVG 1.1//EN"
 "http://www.w3.org/Graphics/SVG/1.1/DTD/svg11.dtd">
<!-- Generated by graphviz version 2.43.0 (0)
 -->
<!-- Title: %3 Pages: 1 -->
<svg width="850pt" height="711pt"
 viewBox="0.00 0.00 850.15 711.00" xmlns="http://www.w3.org/2000/svg" xmlns:xlink="http://www.w3.org/1999/xlink">
<g id="graph0" class="graph" transform="scale(1 1) rotate(0) translate(4 707)">
<title>%3</title>
<polygon fill="white" stroke="transparent" points="-4,4 -4,-707 846.15,-707 846.15,4 -4,4"/>
<g id="clust2" class="cluster">
<title>clusterLegend</title>
<polygon fill="none" stroke="black" points="199.05,-446 199.05,-695 602.16,-695 602.16,-446 199.05,-446"/>
<text text-anchor="middle" x="400.61" y="-679.8" font-family="Times,serif" font-size="14.00">Legend</text>
</g>
<g id="clust3" class="cluster">
<title>cluster_IsZero_0</title>
<polygon fill="none" stroke="black" points="8,-58 8,-261 290.84,-261 290.84,-58 8,-58"/>
<text text-anchor="middle" x="149.42" y="-245.8" font-family="Times,serif" font-size="14.00">IsZero</text>
</g>
<g id="clust4" class="cluster">
<title>cluster_div_1</title>
<polygon fill="none" stroke="black" points="190,-269 190,-438 834.15,-438 834.15,-269 190,-269"/>
<text text-anchor="middle" x="512.07" y="-422.8" font-family="Times,serif" font-size="14.00">div (main)</text>
</g>
<!-- main_magnet -->
<!-- div_1_x1 -->
<g id="node15" class="node">
<title>div_1_x1</title>
<ellipse fill="#ffadad" stroke="black" cx="255.84" cy="-362" rx="27" ry="18"/>
<text text-anchor="middle" x="255.84" y="-358.3" font-family="Times,serif" font-size="14.00">x1</text>
</g>
<!-- main_magnet&#45;&gt;div_1_x1 -->
<!-- div_1_x2 -->
<g id="node16" class="node">
<title>div_1_x2</title>
<ellipse fill="#ffadad" stroke="black" cx="545.37" cy="-332" rx="27" ry="18"/>
<text text-anchor="middle" x="545.37" y="-328.3" font-family="Times,serif" font-size="14.00">x2</text>
</g>
<!-- main_magnet&#45;&gt;div_1_x2 -->
<!-- div_1_o -->
<g id="node17" class="node">
<title>div_1_o</title>
<ellipse fill="#ffd6a5" stroke="black" cx="799.15" cy="-343" rx="27" ry="18"/>
<text text-anchor="middle" x="799.15" y="-339.3" font-family="Times,serif" font-size="14.00">o</text>
</g>
<!-- main_magnet&#45;&gt;div_1_o -->
<!-- div_1_isZero_in -->
<g id="node18" class="node">
<title>div_1_isZero_in</title>
<ellipse fill="#caffbf" stroke="black" cx="683.15" cy="-295" rx="51.99" ry="18"/>
<text text-anchor="middle" x="683.15" y="-291.3" font-family="Times,serif" font-size="14.00">isZero.in</text>
</g>
<!-- main_magnet&#45;&gt;div_1_isZero_in -->
<!-- div_1_isZero_out -->
<g id="node19" class="node">
<title>div_1_isZero_out</title>
<ellipse fill="#9bf6ff" stroke="black" cx="255.84" cy="-295" rx="57.69" ry="18"/>
<text text-anchor="middle" x="255.84" y="-291.3" font-family="Times,serif" font-size="14.00">isZero.out</text>
</g>
<!-- main_magnet&#45;&gt;div_1_isZero_out -->
<!-- div_1_call_fr_div -->
<g id="node20" class="node">
<title>div_1_call_fr_div</title>
<polygon fill="#bdb2ff" stroke="black" points="701.15,-387 665.15,-387 665.15,-351 701.15,-351 701.15,-387"/>
<text text-anchor="middle" x="683.15" y="-365.3" font-family="Times,serif" font-size="14.00">\ </text>
</g>
<!-- main_magnet&#45;&gt;div_1_call_fr_div -->
<!-- inputSignal -->
<g id="node2" class="node">
<title>inputSignal</title>
<ellipse fill="#ffadad" stroke="black" cx="255.84" cy="-646" rx="29.6" ry="18"/>
<text text-anchor="middle" x="255.84" y="-642.9" font-family="Times,serif" font-size="12.00">Input</text>
</g>
<!-- outputSignal -->
<g id="node3" class="node">
<title>outputSignal</title>
<ellipse fill="#ffd6a5" stroke="black" cx="545.37" cy="-646" rx="35.91" ry="18"/>
<text text-anchor="middle" x="545.37" y="-642.9" font-family="Times,serif" font-size="12.00">Output</text>
</g>
<!-- inputSignal&#45;&gt;outputSignal -->
<g id="edge1" class="edge">
<title>inputSignal&#45;&gt;outputSignal</title>
<path fill="none" stroke="black" stroke-width="3" stroke-dasharray="1,5" d="M285.46,-646C338.59,-646 452.25,-646 509.66,-646"/>
<text text-anchor="middle" x="405.13" y="-649.8" font-family="Times,serif" font-size="14.00">Constraint</text>
</g>
<!-- subcmpOutputSignal -->
<g id="node4" class="node">
<title>subcmpOutputSignal</title>
<ellipse fill="#9bf6ff" stroke="black" cx="255.84" cy="-586" rx="48.58" ry="24.08"/>
<text text-anchor="middle" x="255.84" y="-589.4" font-family="Times,serif" font-size="12.00">Subcmp.</text>
<text text-anchor="middle" x="255.84" y="-576.4" font-family="Times,serif" font-size="12.00">output</text>
</g>
<!-- subcmpInputSignal -->
<g id="node5" class="node">
<title>subcmpInputSignal</title>
<ellipse fill="#caffbf" stroke="black" cx="545.37" cy="-586" rx="48.58" ry="24.08"/>
<text text-anchor="middle" x="545.37" y="-589.4" font-family="Times,serif" font-size="12.00">Subcmp.</text>
<text text-anchor="middle" x="545.37" y="-576.4" font-family="Times,serif" font-size="12.00">input</text>
</g>
<!-- subcmpOutputSignal&#45;&gt;subcmpInputSignal -->
<g id="edge2" class="edge">
<title>subcmpOutputSignal&#45;&gt;subcmpInputSignal</title>
<path fill="none" stroke="black" d="M304.65,-586C354.6,-586 433.01,-586 486.44,-586"/>
<polygon fill="black" stroke="black" points="486.45,-589.5 496.45,-586 486.45,-582.5 486.45,-589.5"/>
<text text-anchor="middle" x="405.13" y="-589.8" font-family="Times,serif" font-size="14.00">Data flow</text>
</g>
<!-- intermediateSignal -->
<g id="node6" class="node">
<title>intermediateSignal</title>
<ellipse fill="#fdffb6" stroke="black" cx="255.84" cy="-526" rx="40.03" ry="18"/>
<text text-anchor="middle" x="255.84" y="-522.9" font-family="Times,serif" font-size="12.00">Internal</text>
</g>
<!-- localVar -->
<g id="node7" class="node">
<title>localVar</title>
<ellipse fill="#f5f3e7" stroke="black" cx="545.37" cy="-526" rx="45.61" ry="18"/>
<text text-anchor="middle" x="545.37" y="-522.9" font-family="Times,serif" font-size="12.00">Local var</text>
</g>
<!-- intermediateSignal&#45;&gt;localVar -->
<!-- conditional -->
<g id="node8" class="node">
<title>conditional</title>
<polygon fill="#ffc6ff" stroke="black" points="255.84,-490 214.27,-472 255.84,-454 297.42,-472 255.84,-490"/>
<text text-anchor="middle" x="255.84" y="-468.9" font-family="Times,serif" font-size="12.00">Cond</text>
</g>
<!-- operator -->
<g id="node9" class="node">
<title>operator</title>
<polygon fill="#bdb2ff" stroke="black" points="572.37,-490 518.37,-490 518.37,-454 572.37,-454 572.37,-490"/>
<text text-anchor="middle" x="545.37" y="-468.9" font-family="Times,serif" font-size="12.00">Op</text>
</g>
<!-- conditional&#45;&gt;operator -->
<!-- IsZero_0_in -->
<g id="node10" class="node">
<title>IsZero_0_in</title>
<ellipse fill="#ffadad" stroke="black" cx="43" cy="-138" rx="27" ry="18"/>
<text text-anchor="middle" x="43" y="-134.3" font-family="Times,serif" font-size="14.00">in</text>
</g>
<!-- IsZero_0_out -->
<g id="node11" class="node">
<title>IsZero_0_out</title>
<ellipse fill="#ffd6a5" stroke="black" cx="134" cy="-212" rx="27" ry="18"/>
<text text-anchor="middle" x="134" y="-208.3" font-family="Times,serif" font-size="14.00">out</text>
</g>
<!-- IsZero_0_in&#45;&gt;IsZero_0_out -->
<g id="edge5" class="edge">
<title>IsZero_0_in&#45;&gt;IsZero_0_out</title>
<path fill="none" stroke="black" d="M64.03,-149.83C71.36,-156.4 79.86,-164.28 88,-171 95.71,-177.36 104.6,-183.85 112.44,-189.92"/>
<polygon fill="black" stroke="black" points="110.43,-192.79 120.42,-196.31 114.8,-187.32 110.43,-192.79"/>
</g>
<!-- IsZero_0_in&#45;&gt;IsZero_0_out -->
<g id="edge17" class="edge">
<title>IsZero_0_in&#45;&gt;IsZero_0_out</title>
<path fill="none" stroke="black" stroke-width="3" stroke-dasharray="1,5" d="M53.42,-154.8C62.08,-165.55 75.46,-178.65 88,-189 94.65,-194.49 102.19,-200.08 109.17,-204.62"/>
</g>
<!-- IsZero_0_inv -->
<g id="node12" class="node">
<title>IsZero_0_inv</title>
<ellipse fill="#fdffb6" stroke="black" cx="255.84" cy="-180" rx="27" ry="18"/>
<text text-anchor="middle" x="255.84" y="-176.3" font-family="Times,serif" font-size="14.00">inv</text>
</g>
<!-- IsZero_0_in&#45;&gt;IsZero_0_inv -->
<g id="edge16" class="edge">
<title>IsZero_0_in&#45;&gt;IsZero_0_inv</title>
<path fill="none" stroke="black" stroke-width="3" stroke-dasharray="1,5" d="M64.72,-148.78C76.75,-154.54 92.37,-161.22 107,-165 148.71,-175.78 198.92,-178.88 228.79,-179.73"/>
</g>
<!-- IsZero_0_call_fr_div -->
<g id="node13" class="node">
<title>IsZero_0_call_fr_div</title>
<polygon fill="#bdb2ff" stroke="black" points="152,-102 116,-102 116,-66 152,-66 152,-102"/>
<text text-anchor="middle" x="134" y="-80.3" font-family="Times,serif" font-size="14.00">\ </text>
</g>
<!-- IsZero_0_in&#45;&gt;IsZero_0_call_fr_div -->
<g id="edge6" class="edge">
<title>IsZero_0_in&#45;&gt;IsZero_0_call_fr_div</title>
<path fill="none" stroke="black" d="M63.75,-126.02C76.52,-118.27 93.28,-108.1 107.11,-99.71"/>
<polygon fill="black" stroke="black" points="108.97,-102.67 115.71,-94.49 105.34,-96.69 108.97,-102.67"/>
</g>
<!-- IsZero_0_call_fr_neq -->
<g id="node14" class="node">
<title>IsZero_0_call_fr_neq</title>
<polygon fill="#ffc6ff" stroke="black" points="134,-156 107,-138 134,-120 161,-138 134,-156"/>
</g>
<!-- IsZero_0_in&#45;&gt;IsZero_0_call_fr_neq -->
<g id="edge7" class="edge">
<title>IsZero_0_in&#45;&gt;IsZero_0_call_fr_neq</title>
<path fill="none" stroke="black" d="M70.22,-138C78.55,-138 87.91,-138 96.82,-138"/>
<polygon fill="black" stroke="black" points="96.97,-141.5 106.97,-138 96.97,-134.5 96.97,-141.5"/>
</g>
<!-- IsZero_0_in&#45;&gt;div_1_isZero_in -->
<g id="edge18" class="edge">
<title>IsZero_0_in&#45;&gt;div_1_isZero_in</title>
<path fill="none" stroke="black" stroke-width="3" stroke-dasharray="1,5" d="M50.25,-120.58C61.79,-91.93 89.31,-38 133,-38 133,-38 133,-38 546.37,-38 654.61,-38 676.79,-218.43 681.14,-276.93"/>
</g>
<!-- IsZero_0_out&#45;&gt;IsZero_0_inv -->
<g id="edge19" class="edge">
<title>IsZero_0_out&#45;&gt;IsZero_0_inv</title>
<path fill="none" stroke="black" stroke-width="3" stroke-dasharray="1,5" d="M148,-196.35C156.52,-190.22 168.06,-184.35 179,-181 195.76,-175.86 215.4,-173.36 230.5,-173.38"/>
</g>
<!-- IsZero_0_out&#45;&gt;div_1_isZero_out -->
<g id="edge8" class="edge">
<title>IsZero_0_out&#45;&gt;div_1_isZero_out</title>
<path fill="none" stroke="black" d="M153.46,-224.83C163.53,-234.4 176.65,-246.86 190,-256 199.98,-262.83 211.75,-268.8 222.52,-274.08"/>
<polygon fill="black" stroke="black" points="221.12,-277.3 231.64,-278.55 224.2,-271.01 221.12,-277.3"/>
</g>
<!-- IsZero_0_out&#45;&gt;div_1_isZero_out -->
<g id="edge20" class="edge">
<title>IsZero_0_out&#45;&gt;div_1_isZero_out</title>
<path fill="none" stroke="black" stroke-width="3" stroke-dasharray="1,5" d="M143.88,-228.98C154.1,-242.97 171.83,-261.57 190,-274 195.63,-277.85 201.83,-281.43 208.11,-284.6"/>
</g>
<!-- IsZero_0_inv&#45;&gt;IsZero_0_out -->
<g id="edge9" class="edge">
<title>IsZero_0_inv&#45;&gt;IsZero_0_out</title>
<path fill="none" stroke="black" d="M231.86,-188.69C216.6,-191.22 196.27,-193.71 179,-199 175.82,-199.98 172.58,-201.17 169.38,-202.45"/>
<polygon fill="black" stroke="black" points="167.82,-199.31 160,-206.46 170.57,-205.75 167.82,-199.31"/>
</g>
<!-- IsZero_0_call_fr_div&#45;&gt;IsZero_0_inv -->
<g id="edge10" class="edge">
<title>IsZero_0_call_fr_div&#45;&gt;IsZero_0_inv</title>
<path fill="none" stroke="black" d="M152.17,-97.75C172.46,-114.01 206.4,-141.19 229.66,-159.83"/>
<polygon fill="black" stroke="black" points="227.71,-162.75 237.71,-166.27 232.09,-157.29 227.71,-162.75"/>
</g>
<!-- div_1_x1&#45;&gt;div_1_x2 -->
<g id="edge22" class="edge">
<title>div_1_x1&#45;&gt;div_1_x2</title>
<path fill="none" stroke="black" stroke-width="3" stroke-dasharray="1,5" d="M282.61,-359.31C337.2,-353.62 463.93,-340.39 518.55,-334.69"/>
</g>
<!-- div_1_x1&#45;&gt;div_1_o -->
<g id="edge21" class="edge">
<title>div_1_x1&#45;&gt;div_1_o</title>
<path fill="none" stroke="black" stroke-width="3" stroke-dasharray="1,5" d="M280.18,-370.19C351.17,-393.77 569.73,-456.32 735.15,-396 755.42,-388.61 773.7,-371.49 785.28,-358.7"/>
</g>
<!-- div_1_x1&#45;&gt;div_1_call_fr_div -->
<g id="edge11" class="edge">
<title>div_1_x1&#45;&gt;div_1_call_fr_div</title>
<path fill="none" stroke="black" d="M283.13,-362.43C358.91,-363.68 577.32,-367.27 654.63,-368.55"/>
<polygon fill="black" stroke="black" points="654.92,-372.05 664.98,-368.72 655.04,-365.05 654.92,-372.05"/>
</g>
<!-- div_1_x2&#45;&gt;div_1_o -->
<g id="edge24" class="edge">
<title>div_1_x2&#45;&gt;div_1_o</title>
<path fill="none" stroke="black" stroke-width="3" stroke-dasharray="1,5" d="M572.36,-333.14C620.61,-335.24 723.49,-339.74 771.92,-341.85"/>
</g>
<!-- div_1_x2&#45;&gt;div_1_isZero_in -->
<g id="edge12" class="edge">
<title>div_1_x2&#45;&gt;div_1_isZero_in</title>
<path fill="none" stroke="black" d="M567.29,-321.26C582.63,-315.71 604.25,-309.27 624.6,-304"/>
<polygon fill="black" stroke="black" points="625.62,-307.36 634.46,-301.52 623.91,-300.57 625.62,-307.36"/>
</g>
<!-- div_1_x2&#45;&gt;div_1_isZero_in -->
<g id="edge23" class="edge">
<title>div_1_x2&#45;&gt;div_1_isZero_in</title>
<path fill="none" stroke="black" stroke-width="3" stroke-dasharray="1,5" d="M572.55,-330.32C594.9,-325.84 627.09,-317.18 650.81,-309.33"/>
</g>
<!-- div_1_x2&#45;&gt;div_1_call_fr_div -->
<g id="edge13" class="edge">
<title>div_1_x2&#45;&gt;div_1_call_fr_div</title>
<path fill="none" stroke="black" d="M570.64,-338.61C594.4,-345.09 630.53,-354.93 655.18,-361.65"/>
<polygon fill="black" stroke="black" points="654.4,-365.07 664.97,-364.32 656.24,-358.31 654.4,-365.07"/>
</g>
<!-- div_1_isZero_in&#45;&gt;IsZero_0_in -->
<g id="edge14" class="edge">
<title>div_1_isZero_in&#45;&gt;IsZero_0_in</title>
<path fill="none" stroke="black" d="M682.97,-276.84C684.12,-229.03 680.58,-98.2 613.16,-24 591.95,-0.65 577.91,0 546.37,0 133,0 133,0 133,0 81.18,0 58.08,-69.56 49.04,-109.91"/>
<polygon fill="black" stroke="black" points="45.56,-109.45 46.94,-119.96 52.41,-110.89 45.56,-109.45"/>
</g>
<!-- div_1_call_fr_div&#45;&gt;div_1_o -->
<g id="edge15" class="edge">
<title>div_1_call_fr_div&#45;&gt;div_1_o</title>
<path fill="none" stroke="black" d="M701.47,-365.05C717.88,-361.31 743,-355.58 763.53,-350.9"/>
<polygon fill="black" stroke="black" points="764.5,-354.26 773.47,-348.63 762.94,-347.44 764.5,-354.26"/>
</g>
</g>
</svg>
